<svg xmlns="http://www.w3.org/2000/svg" data-name="Layer 1" viewBox="0 0 100 125" x="0px" y="0px"><defs><style>.cls-1{fill:#010101;}</style></defs><title>shopping</title><path class="cls-1" d="M75.8,34.72a1,1,0,0,0-.76-.35H25.34l-1-5.55a1,1,0,0,0-.86-.82l-8-1a1,1,0,0,0-.25,2l7.32.91,6.33,36.3a1,1,0,0,0,1,.83h5.38v.72a4.89,4.89,0,1,0,2,0V67H63.4v.72a4.89,4.89,0,1,0,2,0V67h4.89a1,1,0,0,0,0-2H30.69l-.57-3.28H71.28a1,1,0,0,0,1-.85L76,35.52A1,1,0,0,0,75.8,34.72ZM39.12,72.52a2.89,2.89,0,1,1-2.89-2.89A2.89,2.89,0,0,1,39.12,72.52Zm28.16,0a2.89,2.89,0,1,1-2.89-2.89A2.89,2.89,0,0,1,67.28,72.52Zm3.14-12.78H29.77L25.69,36.37H73.88ZM44.71,53.07a1,1,0,0,1-.93-1.36,6.5,6.5,0,0,1,12.1,0,1,1,0,1,1-1.86.73,4.49,4.49,0,0,0-4.2-2.85,4.44,4.44,0,0,0-4.17,2.84A1,1,0,0,1,44.71,53.07Zm1.84-8.43A1.59,1.59,0,1,1,45,43,1.59,1.59,0,0,1,46.55,44.64Zm9.74,0A1.59,1.59,0,1,1,54.69,43,1.59,1.59,0,0,1,56.29,44.64Z"/><text x="0" y="115" fill="#000000" font-size="5px" font-weight="bold" font-family="'Helvetica Neue', Helvetica, Arial-Unicode, Arial, Sans-serif"></text></svg>